<?xml version="1.0" encoding="utf-8"?>
<!-- Generator: Adobe Illustrator 15.1.0, SVG Export Plug-In  -->
<!DOCTYPE svg PUBLIC "-//W3C//DTD SVG 1.1//EN" "http://www.w3.org/Graphics/SVG/1.1/DTD/svg11.dtd" [
	<!ENTITY ns_flows "http://ns.adobe.com/Flows/1.0/">
]>
<svg version="1.1"
	 xmlns="http://www.w3.org/2000/svg" xmlns:xlink="http://www.w3.org/1999/xlink" xmlns:a="http://ns.adobe.com/AdobeSVGViewerExtensions/3.0/"
	 x="0px" y="0px" width="1000px" height="1000px" viewBox="0 -89.401 1000 1000"
	 overflow="visible" enable-background="new 0 -89.401 1000 1000" xml:space="preserve">
<defs>
</defs>
<path fill="#FFE834" d="M686.695,664.233c-193.507,149.258-456.936,183.68-588.329,76.854
	c-131.387-106.793-81.051-314.363,112.46-463.639C404.337,128.196,667.751,93.79,799.18,200.592
	C930.544,307.388,880.188,514.975,686.695,664.233z"/>
<path fill="#060D3C" d="M669.338,677.184C486.64,810.083,243.853,836.444,127.062,736C10.269,635.562,63.691,446.397,246.388,313.46
	c182.681-132.937,425.457-159.28,542.259-58.837C905.433,355.065,852.019,544.245,669.338,677.184z"/>
<path fill="#FFE834" d="M107.616,739.525C-13.872,635.118,41.98,438.126,232.371,299.534
	c190.372-138.607,443.196-166.328,564.674-61.911c84.42,72.555,83.143,189.788,10.667,301.092
	c93.252-126.354,100.269-264.708,2.676-348.878c-131.836-113.641-404.336-85.547-608.69,62.781
	C-2.652,400.948-61.455,613.292,70.327,726.93c33.602,28.988,76.402,48.694,124.844,59.595
	C161.76,776.036,132.006,760.495,107.616,739.525z"/>
<polygon fill="#060D3C" points="722.06,668.059 715.8,668.059 715.8,665.801 731.04,665.801 731.04,668.059 724.749,668.059 
	724.749,686.391 722.06,686.391 "/>
<path fill="#060D3C" d="M750.627,677.349c-0.154-2.875-0.336-6.356-0.336-8.891h-0.056c-0.734,2.383-1.567,4.979-2.604,7.82
	l-3.633,9.988h-2.021l-3.36-9.807c-0.975-2.934-1.767-5.557-2.348-8.002h-0.062c-0.059,2.565-0.217,5.988-0.399,9.101l-0.544,8.832
	h-2.537l1.435-20.59h3.396l3.512,9.957c0.854,2.534,1.525,4.796,2.076,6.935h0.055c0.551-2.072,1.285-4.338,2.204-6.935l3.664-9.957
	h3.395l1.284,20.59h-2.634L750.627,677.349z"/>
<path fill="#FFE834" d="M248.313,476.156c0,0-2.458,5.206-7.069,4.277c-3.924-0.788-3.361-4.932-3.361-4.932l-0.164-42.956
	l-15.483,40.78c0,0-2.169,5.206-6.773,4.896c-3.357-0.241-4.574-4.934-4.574-4.934l-6.308-46.152l-7.515,45.812
	c0,0-0.928,3.666-4.303,4.6c-4.757,1.26-6.434-4.944-6.434-4.944l-13.981-40.278l-0.761,42.048c0,0-0.628,4.6-4.314,4.89
	c-4.936,0.409-7.341-5.247-7.341-5.247l-16.884-35.307l7.804,50.091l-2.223,38.558l109.061,0.351l-1.988-37.947l7.726-50.363
	L248.313,476.156z"/>
<path fill="#060D3C" d="M150.434,498.451c-3.455,0-6.258,2.799-6.258,6.257c0,3.457,2.803,6.256,6.258,6.256h105.605
	c3.456,0,6.258-2.799,6.258-6.256c0-3.458-2.803-6.257-6.258-6.257H150.434z"/>
<path fill="#FFE834" d="M392.977,476.156c0,0-2.469,5.206-7.062,4.277c-3.934-0.788-3.359-4.932-3.359-4.932l-0.184-42.956
	l-15.482,40.78c0,0-2.152,5.206-6.766,4.896c-3.347-0.241-4.572-4.934-4.572-4.934l-6.301-46.152l-7.515,45.812
	c0,0-0.928,3.666-4.3,4.6c-4.758,1.26-6.438-4.944-6.438-4.944l-13.979-40.278l-0.752,42.048c0,0-0.654,4.6-4.332,4.89
	c-4.929,0.409-7.333-5.247-7.333-5.247l-16.894-35.307l7.797,50.091l-2.208,38.558l109.061,0.351l-1.986-37.947l7.723-50.363
	L392.977,476.156z"/>
<path fill="#FFE834" d="M315.248,599.227c0,0-2.47,5.213-7.062,4.28c-3.931-0.793-3.359-4.945-3.359-4.945l-0.183-42.953
	l-15.484,40.788c0,0-2.152,5.209-6.771,4.889c-3.342-0.237-4.567-4.928-4.567-4.928l-6.299-46.155l-7.525,45.812
	c0,0-0.916,3.667-4.293,4.601c-4.755,1.26-6.444-4.952-6.444-4.952l-13.969-40.271l-0.76,42.048c0,0-0.648,4.615-4.322,4.894
	c-4.931,0.406-7.344-5.243-7.344-5.243l-16.882-35.317l7.795,50.108l-2.205,38.551l109.059,0.344l-1.995-37.951l7.734-50.36
	L315.248,599.227z"/>
<path fill="#060D3C" d="M787.305,29.8l45.288,9.313l-2.865-32.531c0,0,1.866-9.461,9.021-0.432l35.258,64.641l43.873-54.038
	c0,0,2.875-3.297,5.438-1.286l4.018,3.874c0,0,1.859,1.429-1.718,6.586c0,0-13.9,23.801-4.008,44.999c0,0,15.329-9.309,51.892,2.579
	c0,0,26.365,8.751,26.499,15.195c0,0,0.151,5.158-7.018,2.434c0,0-36.824-9.601-61.336,30.39c0,0-17.764,26.077-6.146,35.825
	c0,0,7.726,8.312,30.075,12.612c0,0,3.585-0.148,3.306,4.298c0,0,0.854,4.16-3.009,4.726c0,0-19.644,0.145-31.532,8.177
	c0,0-16.765,9.021-25.366,28.799c0,0,18.482,12.184,20.487,15.194c0,0,3.873,3.154-0.995,5.733c0,0-44.17,4.865-45.735,5.872
	c0,0-18.501,4.299-5.606,23.069l96.461-24.359c0,0,1.325-1.438,4.899,2.292l3.003,3.013c0,0,2.021,3.293-1.285,5.011
	c-3.298,1.723-3.298,1.723-3.298,1.723l-91.299,48.155c0,0-39.563,2.585-50.877,6.308c0,0-9.031,1.72-9.892,11.612
	c0,0,10.025,4.728,55.32-3.441c0,0,2.573-0.866,4.728,3.15c0,0,5.454,5.025,1.998,7.458L768.821,363.45
	c0,0,3.292-7.742-8.748-10.033c0,0-15.873-4.444-46.966,8.886c0,0-3.729,0.284-6.012-5.161l9.455-26.8
	c0,0,70.788-32.421,112.626-94.865c0,0,71.738-89.76-21.216-179.221c0,0-13.939-13.361-23.673-19.963c0,0-2.826-2.836-0.646-5.454
	C783.642,30.839,785.021,29.195,787.305,29.8z"/>
<path fill="#060D3C" d="M512.422,304.516c0,0,42.278,34.186,56.961,46.209c5.364,0.468,12.367,1.728,21.007,4.488
	c2.154-2.915,3.026-8.515,0.98-18.655l11.824,0.905l-3.306-9.369c0,0-70.788-32.421-112.616-94.87c0,0-71.746-89.751,21.2-179.212
	c0,0,13.945-13.361,23.675-19.972c0,0,2.834-2.836,0.654-5.446c0,0-1.381-1.652-3.664-1.046l-45.294,9.313l2.869-32.531
	c0,0-1.863-9.455-9.032-0.427L442.427,68.54L398.56,14.511c0,0-2.867-3.298-5.446-1.292l-4.009,3.872c0,0-1.863,1.438,1.718,6.595
	c0,0,13.903,23.792,4.011,45c0,0-15.344-9.318-51.886,2.575c0,0-26.374,8.746-26.516,15.189c0,0-0.14,5.167,7.029,2.443
	c0,0,36.827-9.601,61.335,30.381c0,0,17.758,26.077,6.156,35.825c0,0-7.74,8.312-30.097,12.612c0,0-3.583-0.141-3.297,4.299
	c0,0-0.854,4.16,3.013,4.728c0,0,19.633,0.151,31.527,8.176c0,0,16.772,9.021,25.373,28.799c0,0-18.481,12.184-20.494,15.202
	c0,0-3.867,3.147,1.002,5.729c0,0,44.157,4.871,45.732,5.869c0,0,18.494,4.308,5.595,23.075l-78.067-18.113
	c0,0-0.105-1.11-3.689,2.618l-2.617,3.211c0,0-4.339,2.619-1.04,4.347c3.3,1.713,2.823,1.365,2.823,1.365l74.116,42.405
	c0,0,39.557,2.583,50.882,6.312c0,0,9.027,1.713,9.893,11.61c0,0-10.031,4.731-55.326-3.442c0,0-2.577-0.871-4.724,3.154
	c0,0-5.447,5.019-2.011,7.449l72.676,24.679C507.219,336.474,505.904,321.484,512.422,304.516z"/>
<path fill="#FFE834" d="M552.669,410.029c0,3.073,0.393,75.435,34.607,91.92l3.381-7.01c-29.827-14.372-30.206-84.208-30.206-84.913
	L552.669,410.029z"/>
<path fill="#FFE834" d="M711.303,553.222c0,0,1.071,121.214-92.507,233.943l5.319,34.032
	C624.115,821.197,743.194,662.742,711.303,553.222z"/>
<path fill="#FFE834" d="M487.559,519.782l12.186-11.745c0,0,64.074,166.942,8.291,241.853
	C508.035,749.89,561.445,661.548,487.559,519.782z"/>
<path fill="#FFE834" d="M487.169,519.375l-0.303,0.293l0.193,0.372c72.875,139.827,21.028,228.675,20.495,229.561l0.933,0.626
	l0.034-0.055c16.845-22.652,22.715-53.858,22.715-86.345c0-74.087-30.52-154.829-30.969-155.993l-0.911-0.203L487.169,519.375z
	 M499.517,509.036c2.852,7.671,30.621,84.251,30.621,154.795c0,28.983-4.772,56.863-17.837,78.521
	c5.413-12.352,14.751-39.152,14.751-78.088c0-37.789-8.869-86.775-38.808-144.362C488.774,519.393,498.433,510.082,499.517,509.036z
	"/>
<path fill="#FFE834" d="M600.082,408.4c0,0,17.767,8.903,26.994,18.12C627.076,426.52,588.889,427.591,600.082,408.4z"/>
<path fill="#FFE834" d="M599.568,408.101c-2.438,4.18-2.792,7.79-1.046,10.73c5.24,8.834,27.62,8.311,28.57,8.283l1.382-0.038
	l-0.978-0.977c-9.19-9.179-26.971-18.142-27.15-18.231l-0.499-0.25L599.568,408.101z M599.545,418.226
	c-0.609-1.031-0.916-2.171-0.916-3.413c0-1.677,0.62-3.563,1.732-5.6c2.513,1.292,16.657,8.771,25.166,16.713
	C620.493,425.891,603.708,425.244,599.545,418.226z"/>
<path fill="#FFE834" d="M509.663,496.248l0.024,3.364c7.52,0,34.742-43.309,46.098-61.93l-2.872-1.749
	C535.095,465.152,514.044,495.7,509.663,496.248z"/>
<path fill="#FFE834" d="M683.575,495.989l-0.554,0.39l11.765,16.943l1.116-0.771c0,0-10.271-14.796-10.995-15.836
	c1.037-0.72,15.392-10.711,15.392-10.711l-0.778-1.116L683.575,495.989z"/>
<path fill="#FFE834" d="M580.573,392.19c0.596,0.168,59.677,17.45,81.95,70.177l1.253-0.53
	c-22.535-53.335-82.232-70.783-82.832-70.952L580.573,392.19z"/>
<path fill="#FFE834" d="M474.588,526.379c0,0,1.81,9.052,0.797,12.337c-1.014,3.288-5.22,15.029-16.358,24.884
	c-17.416,15.397-41.914,21.455-41.914,21.455v-14.39c0,0,17.625-3.973,33.075-14.396
	C461.804,548.442,467.771,541.267,474.588,526.379z"/>
<path fill="#FFE834" d="M634.352,522.998l76.752,12.361c0,0,11.89,2.74,15.257-2.597l29.608-30.934c0,0-59.244-47.055-25.566-96.144
	c0,0,3.791,6.684,0.878,10.165c0,0-31.371,34.276,31.371,79.885c0,0,2.324,6.673-0.871,11.321l-36.019,37.18
	c0,0-1.739,4.648-13.643,2.038l-78.143-12.199L634.352,522.998z"/>
<path fill="#FFE834" d="M508.338,321.348c-3.374,2.57-11.214,5.501-29.335,3.724l29.491,9.88
	C507.929,330.617,507.846,326.079,508.338,321.348z"/>
<path fill="#FFE834" d="M799.762,39.844l35.173,7.076c0,0,6.042,1.663,4.373-6.038l-1.667-18.74l31.439,57.248
	c0,0,2.293,4.998,6.459,0.208c4.152-4.782,33.09-41.008,33.09-41.008s-6.029,24.769,8.125,40.178c0,0,1.671,0.415,6.87-1.876
	c5.195-2.284,22.689-5.621,49.126,4.159c0,0-42.677,1.05-61.622,57.67c0,0-6.459,20.613,23.313,32.681
	c0,0-32.06,6.036-46.214,39.965c0,0-2.913,5.001,2.913,7.294l13.317,8.949c0,0-28.87,2.875-40.584,5.821
	c0,0-24.15,8.744-2.507,36.226c0,0,2.493,4.583,5.206,3.121l70.999-18.107l-67.245,36.224c0,0-38.51,1.035-53.095,7.074
	c0,0-14.358,4.368-11.651,22.484c0,0,2.093,9.782,31.866,6.871l-80.146,26.852c0,0-17.484-1.461-45.591,10.407
	c0,0-26.499-16.436-26.65-16.448c0,0,27.49-25.908,28.526-76.397c0,0,21.799,21.226,1.367,67.144
	C714.953,338.881,978.842,207.14,799.762,39.844z"/>
<path fill="#FFE834" d="M601.496,336.629c0,0-263.905-131.741-84.812-299.037l-35.179,7.076c0,0-6.042,1.668-4.379-6.032
	l1.669-18.743l-31.436,57.251c0,0-2.293,4.998-6.454,0.21c-4.163-4.79-33.098-41.015-33.098-41.015s6.034,24.775-8.123,40.182
	c0,0-1.668,0.412-6.869-1.876c-5.203-2.288-22.69-5.621-49.127,4.165c0,0,42.684,1.045,61.626,57.661
	c0,0,6.447,20.612-23.319,32.681c0,0,32.059,6.035,46.218,39.965c0,0,2.913,5.006-2.92,7.294l-13.322,8.951
	c0,0,28.88,2.882,40.595,5.828c0,0,24.149,8.742,2.496,36.217c0,0-2.488,4.588-5.195,3.122l-70.993-18.108l67.24,36.232
	c0,0,38.514,1.03,53.082,7.066c0,0,9.449,2.883,11.573,13.638c0.481-1.598,1.022-3.202,1.652-4.839c0,0,47.867,38.713,59.412,48.225
	c4.613,0.68,10.377,1.87,17.144,3.898c3.113-2.304,4.827-7.945,2.393-20.081l8.081,0.614"/>
<path fill="#FFE834" d="M621.398,338.85c27.325-51.6,2.796-76.13,2.796-76.13c-1.653,37.849-14.579,60.944-26.437,74.326
	L621.398,338.85z"/>
<path fill="#FFE834" d="M511.269,304.074c-21.926,57.083,43.532,92.78,44.197,93.133l1.163-2.18
	c-0.554-0.296-47.357-25.843-47.357-67.818c0-6.463,1.264-13.353,3.818-20.561c21.134,17.09,59.082,47.831,60.362,49.063
	c0.647,0.444,10.192,6.177,16.101,2.042c2.796-1.959,4.2-5.728,4.2-11.25c0-2.486-0.348-5.402-0.916-8.593
	c2.906,0.222,48.025,3.664,48.997,3.738c2.042,2.396,16.365,18.086,37.527,13.101c21.006-4.929,30.937,14.212,31.347,15.03
	l0.502,0.993l1.043-0.395c0.428-0.164,42.124-15.838,54.193-6.019c-3.464,5.516-22.677,35.258-35.104,36.408l0.227,2.462
	c14.857-1.375,36.66-37.022,37.583-38.541l0.502-0.827l-0.685-0.687c-11.438-11.479-50.377,2.231-56.605,4.528
	c-2.438-4.09-13.411-20.089-33.568-15.36c-21.199,4.996-35.244-12.475-35.386-12.652l-0.333-0.425l-53.238-4.063l0.319,1.601
	c2.021,10.037,1.323,16.579-2.021,18.922c-4.572,3.206-13.005-1.837-13.14-1.918c-3.15-2.795-43.925-35.797-61.798-50.251
	l-1.322-1.069L511.269,304.074z"/>
<polygon fill="#060D3C" points="72.744,497.818 65.806,512.32 25.317,492.945 36.314,469.966 66.703,471.764 66.943,471.253 
	46.234,449.228 57.507,425.666 97.998,445.038 91.06,459.54 60.711,443.236 60.47,443.742 84.92,472.369 78.918,484.913 
	41.216,483.979 41.01,484.413 "/>
<path fill="#060D3C" d="M99.934,369.956l23.741,18.214c9.496,7.286,7.556,15.321-3.208,29.35
	c-14.679,19.131-19.852,18.399-28.398,11.845l-23.741-18.216l9.784-12.753l23.553,18.069c4.036,3.098,6.431,0.072,10.542-5.285
	c4.158-5.419,5.242-7.523,1.065-10.729L90.15,382.709L99.934,369.956z"/>
<polygon fill="#060D3C" points="153.362,378.601 141.974,389.946 110.295,358.152 129.539,338.977 166.109,351.199 166.563,350.746 
	141.55,327.009 152.937,315.663 184.618,347.458 165.205,366.802 128.804,354.41 128.347,354.864 "/>
<path fill="#060D3C" d="M196.146,302.441c14.353-10.646,18.825-12.177,25.394-4.25c4.732,5.714,9.699,11.082-10.724,28.001
	c-11.82,9.794-19.834,16.121-29.227,4.785l11.884-9.846c2.977,3.596,5.015,2.527,11.082-2.497c5.819-4.82,7.506-6.685,5.101-9.589
	c-2.481-2.996-3.123-2.384-9.171,2.159l-2.837,2.117c-11.946,8.887-18.593,14.469-26.802,4.562
	c-8.207-9.908-1.253-16.758,10.877-26.807c10.15-8.41,18.929-15.45,26.833-5.911l1.183,1.429l-11.882,9.844
	c-2.94-3.548-4.92-1.907-9.872,2.193c-6.685,5.539-6.401,7.014-4.798,8.949c2.292,2.765,4.163,1.372,7.596-1.164L196.146,302.441z"
	/>
<polygon fill="#060D3C" points="259.183,288.44 246.156,297.854 225.965,269.914 213.458,278.952 207.358,270.513 246.053,242.551 
	252.152,250.992 238.994,260.5 "/>
<polygon fill="#060D3C" points="277.248,244.735 299.432,231.726 303.643,238.901 281.457,251.913 285.878,259.45 310.004,245.3 
	314.968,253.767 276.978,276.046 254.27,237.331 291.776,215.334 296.741,223.799 273.1,237.664 "/>
<path fill="#060D3C" d="M305.147,208.178l28.183-12.97c12.705-5.649,19.838-6.496,24.516,3.673
	c3.128,6.793,4.955,10.762-4.588,17.328l0.202,0.434c6.062-2.591,11.056-1.926,13.184,2.696l3.777,8.208l-14.603,6.719l-2.627-5.707
	c-1.255-3.111-3.958-4.371-8.339-2.355l-11.316,5.208l4.979,10.818l-14.601,6.721L305.147,208.178z M340.499,216.744
	c6.279-2.889,5.26-4.527,3.133-9.148c-1.676-3.643-3.393-4.104-8.212-1.887l-11.317,5.208l5.08,11.037L340.499,216.744z"/>
<path fill="#060D3C" d="M500.895,145l30.826-3.473c13.835-1.379,20.87,0.059,22.122,11.179c0.841,7.434,1.326,11.776-9.792,15.016
	l0.059,0.475c6.565-0.56,11.101,1.64,11.669,6.693l1.013,8.981l-15.974,1.801l-0.702-6.246c-0.213-3.349-2.386-5.392-7.183-4.854
	l-12.375,1.396l1.329,11.834l-15.973,1.797L500.895,145z M531.77,164.226c6.868-0.771,6.414-2.648,5.846-7.704
	c-0.45-3.984-1.935-4.96-7.203-4.368l-12.381,1.396l1.36,12.072L531.77,164.226z"/>
<path fill="#060D3C" d="M617.56,138.61l-0.104,29.925c-0.042,11.969-7.609,15.293-25.287,15.232
	c-24.112-0.081-26.667-4.638-26.636-15.41l0.104-29.923l16.072,0.055l-0.093,29.684c-0.024,5.085,3.839,5.159,10.584,5.182
	c6.835,0.022,9.166-0.387,9.184-5.654l0.096-29.145L617.56,138.61z"/>
<path fill="#060D3C" d="M667.685,158.684c0.335-4.546-4.848-5.233-9.62-5.922c-11.452-1.654-12.144,0.906-13.342,8.05l-1.04,7.226
	c-1.14,7.878,2.396,9.236,10.677,10.43c8.112,1.17,10.45,0.12,11.347-6.04l-10.98-1.585l1.19-8.234l27.122,3.915l-1.115,7.761
	c-2.166,14.985-7.65,16.975-28.968,13.899c-18.771-2.711-27.979-6.458-25.902-20.852l1.663-11.488
	c2.113-14.692,13.252-15.321,30.754-12.795c15.433,2.228,26.396,3.87,24.367,17.968L667.685,158.684z"/>
<path fill="#060D3C" d="M700.581,150.661l30.06,9.964c11.362,3.769,17.55,7.585,14.461,16.901c-1.79,5.397-4.407,8.439-12.258,6.845
	l-0.151,0.453c8.336,3.205,8.521,7.49,6.755,12.831c-3.464,10.454-10.497,9.698-22.628,5.676l-30.361-10.066L700.581,150.661z
	 M704.803,189.008l11.514,3.818c4.958,1.644,7.307,1.476,8.457-1.99c1.167-3.521-0.425-4.615-5.382-6.26l-11.824-3.92
	L704.803,189.008z M710.185,172.761l10.987,3.641c5.34,1.771,6.865,1.518,7.991-1.889c0.847-2.557,0.64-3.698-3.599-5.23
	l-12.814-4.249L710.185,172.761z"/>
<polygon fill="#060D3C" points="776.311,215.364 768.033,228.75 754.363,220.298 762.641,206.911 759.783,170.879 775.433,180.558 
	775.497,200.932 775.977,201.228 794.508,192.349 810.363,202.155 "/>
<path fill="#060D3C" d="M295.422,498.369c-3.456,0-6.258,2.799-6.258,6.256s2.802,6.256,6.258,6.256H401.03
	c3.456,0,6.258-2.799,6.258-6.256s-2.803-6.256-6.258-6.256H295.422z"/>
<path fill="#060D3C" d="M217,621.331c-3.455,0-6.258,2.8-6.258,6.256c0,3.458,2.803,6.257,6.258,6.257h105.606
	c3.455,0,6.258-2.799,6.258-6.257c0-3.456-2.803-6.256-6.258-6.256H217z"/>
</svg>
